<?xml version="1.0" encoding="UTF-8"?>
<svg id="Calque_2" data-name="Calque 2" xmlns="http://www.w3.org/2000/svg" xmlns:xlink="http://www.w3.org/1999/xlink" viewBox="0 0 425.33 686.41">
  <defs>
    <style>
      .cls-1 {
        fill: url(#Dégradé_sans_nom_11-3);
      }

      .cls-1, .cls-2, .cls-3, .cls-4, .cls-5 {
        stroke-width: 0px;
      }

      .cls-2 {
        fill: url(#Dégradé_sans_nom_11-2);
      }

      .cls-3 {
        fill: url(#Dégradé_sans_nom_11-4);
      }

      .cls-4 {
        fill: #fff;
      }

      .cls-5 {
        fill: url(#Dégradé_sans_nom_11);
      }
    </style>
    <linearGradient id="Dégradé_sans_nom_11" data-name="Dégradé sans nom 11" x1="244.16" y1="117.79" x2="244.16" y2="631.97" gradientUnits="userSpaceOnUse">
      <stop offset="0" stop-color="#f2a918"/>
      <stop offset="1" stop-color="#e74d46"/>
    </linearGradient>
    <linearGradient id="Dégradé_sans_nom_11-2" data-name="Dégradé sans nom 11" x1="58.72" y1="336.13" x2="58.72" y2="568.05" xlink:href="#Dégradé_sans_nom_11"/>
    <linearGradient id="Dégradé_sans_nom_11-3" data-name="Dégradé sans nom 11" x1="332.21" y1="-1.4" x2="211.42" y2="224.71" xlink:href="#Dégradé_sans_nom_11"/>
    <linearGradient id="Dégradé_sans_nom_11-4" data-name="Dégradé sans nom 11" x1="117.44" y1="522.57" x2="141.07" y2="522.57" xlink:href="#Dégradé_sans_nom_11"/>
  </defs>
  <g id="Calque_1-2" data-name="Calque 1">
    <g>
      <g>
        <path class="cls-5" d="M425.33,473.74c0,20.35-2.86,40.03-8.2,58.66-3.45,12.08-7.96,23.73-13.4,34.82-1.38,2.82-2.82,5.6-4.32,8.35-36.09,66.04-106.18,110.84-186.75,110.84-58.37,0-111.25-23.52-149.68-61.61,10.11-35.31,29.13-66.87,54.46-92.08,8.67-5.81,16.6-12.64,23.63-20.31.95-1.03,1.88-2.08,2.8-3.14.16-.19.33-.38.49-.57,19.53-22.93,31.31-52.66,31.31-85.15,0-11.44-1.46-22.54-4.21-33.11-.16-.62-.32-1.23-.49-1.84-1.12-4.08-2.43-8.08-3.93-11.99-.84-2.19-1.73-4.36-2.68-6.49-11.59-28.81-19.38-59.55-22.77-91.61-.18-1.69-.35-3.4-.5-5.1-.95-10.38-1.43-20.89-1.43-31.52,0-2.56.03-5.12.09-7.67,1.27-58.6,17.2-113.58,44.27-161.44-.45,5.65-.68,11.36-.68,17.13,0,1.18,0,2.35.03,3.52.01.96.04,1.92.07,2.88.01.57.03,1.15.06,1.72.02.75.05,1.49.09,2.23.04.81.08,1.63.13,2.44.05.83.1,1.65.16,2.48.06.87.13,1.74.21,2.6.05.77.12,1.55.2,2.32.07.8.15,1.6.24,2.4.07.69.15,1.39.23,2.08.27,2.38.58,4.75.94,7.11.13.86.26,1.72.41,2.57.13.86.27,1.71.43,2.57.1.61.21,1.21.32,1.82.11.61.23,1.22.35,1.83.11.6.23,1.21.36,1.81.17.87.35,1.74.55,2.61.12.63.26,1.26.41,1.89.16.76.34,1.52.53,2.28.17.75.35,1.51.54,2.26.27,1.09.55,2.17.84,3.26.27,1.02.54,2.03.83,3.04.24.87.49,1.75.75,2.61.19.64.38,1.28.58,1.91.11.38.23.76.35,1.14.16.54.33,1.08.51,1.61.25.79.51,1.57.77,2.35.33,1.01.67,2.01,1.03,3.01.76,2.2,1.57,4.38,2.41,6.54.78,2.02,1.59,4.01,2.43,5.99.47,1.11.95,2.22,1.44,3.32.41.94.83,1.87,1.27,2.79,2.3,5.02,4.8,9.92,7.49,14.71h.01c.81,1.49,1.66,2.95,2.53,4.41.44.73.87,1.46,1.31,2.18.31.52.63,1.04.95,1.55.56.93,1.14,1.85,1.74,2.76.45.72.91,1.42,1.38,2.13.46.71.93,1.41,1.41,2.11.47.71.95,1.4,1.43,2.1.96,1.39,1.93,2.76,2.93,4.13.5.68,1,1.36,1.51,2.04,1.1,1.49,2.23,2.96,3.38,4.41.42.53.84,1.06,1.27,1.59.41.52.83,1.04,1.26,1.56.61.74,1.23,1.49,1.85,2.23,3.84,4.55,7.86,8.94,12.06,13.16,1.19,1.19,2.39,2.37,3.61,3.54.08.08.16.16.25.24.69.65,1.38,1.3,2.07,1.95,1.46,1.36,2.94,2.7,4.44,4.01.68.6,1.36,1.2,2.05,1.78,1.47,1.26,2.96,2.5,4.46,3.72,11.99,9.72,25.06,18.17,39.01,25.12,2.1,1.05,4.23,2.07,6.37,3.04,69.81,34.88,117.75,107.03,117.75,190.37Z"/>
        <path class="cls-2" d="M117.44,532.72c-25.33,25.21-44.35,56.77-54.46,92.08-20.79-20.58-37.34-45.44-48.25-73.14-9.51-24.13-14.73-50.41-14.73-77.92,0-70.86,34.65-133.63,87.95-172.27-13.83,28.21-21.59,59.93-21.59,93.47,0,52.65,19.13,100.82,50.82,137.96.09-.06.17-.12.26-.18Z"/>
        <path class="cls-1" d="M374.71,89.34c-3.92,37.28-17.48,71.7-38.14,100.71-19.28,27.09-44.77,49.46-74.37,65.05-1.5-1.22-2.99-2.46-4.46-3.72-.69-.59-1.37-1.18-2.05-1.78-1.5-1.31-2.98-2.65-4.44-4.01-.69-.65-1.38-1.3-2.07-1.95-.09-.08-.17-.16-.25-.24-1.22-1.17-2.42-2.35-3.61-3.54-4.2-4.22-8.22-8.61-12.06-13.16-.62-.74-1.24-1.49-1.85-2.23-.43-.52-.85-1.04-1.26-1.56-.43-.53-.85-1.06-1.27-1.59-1.15-1.45-2.28-2.92-3.38-4.41-.51-.68-1.01-1.36-1.51-2.04-1-1.37-1.97-2.74-2.93-4.13-.48-.7-.96-1.39-1.43-2.1-.48-.7-.95-1.4-1.41-2.11-.46-.7-.92-1.41-1.38-2.13-.6-.91-1.18-1.83-1.74-2.76-.32-.51-.64-1.03-.95-1.55-.44-.72-.87-1.45-1.31-2.18-.87-1.46-1.72-2.92-2.53-4.41h-.01c-2.69-4.79-5.19-9.69-7.49-14.71-.43-.93-.85-1.86-1.27-2.79-.49-1.1-.97-2.21-1.44-3.32-.83-1.98-1.65-3.98-2.43-5.99-.84-2.16-1.65-4.34-2.41-6.54-.35-1-.7-2-1.03-3.01-.26-.78-.52-1.56-.77-2.35-.18-.53-.35-1.07-.51-1.61-.12-.38-.24-.76-.35-1.14-.2-.63-.39-1.27-.58-1.91-.26-.86-.51-1.74-.75-2.61-.29-1.01-.56-2.02-.83-3.04-.29-1.09-.57-2.17-.84-3.26-.19-.75-.37-1.51-.54-2.26-.19-.76-.37-1.52-.53-2.28-.15-.62-.28-1.25-.41-1.89-.2-.87-.38-1.74-.55-2.61-.13-.6-.25-1.21-.36-1.81-.12-.61-.24-1.22-.35-1.83-.11-.61-.22-1.21-.32-1.82-.16-.86-.3-1.71-.43-2.57-.15-.85-.28-1.71-.41-2.57-.36-2.36-.67-4.73-.94-7.11-.08-.69-.16-1.39-.23-2.08-.09-.8-.17-1.6-.24-2.4-.08-.77-.15-1.55-.2-2.32-.08-.86-.15-1.73-.21-2.6-.06-.83-.11-1.65-.16-2.48-.05-.81-.09-1.63-.13-2.44-.04-.74-.07-1.48-.09-2.23-.03-.57-.05-1.15-.06-1.72-.03-.96-.06-1.92-.07-2.88-.02-1.17-.03-2.34-.03-3.52,0-5.77.23-11.48.68-17.13,15.05-26.63,33.55-51.06,54.92-72.67,17.41,52.18,66.66,89.8,124.7,89.8,3.73,0,7.42-.16,11.07-.46Z"/>
        <path class="cls-3" d="M117.44,532.72c7.36-7.33,15.26-14.12,23.63-20.31-7.03,7.67-14.96,14.5-23.63,20.31Z"/>
      </g>
      <path class="cls-4" d="M263.29,165.25c-3.09.2-6.25-.07-9.41-.85-16.17-4-26.2-20-22.97-36.17,3.08-.2,6.25.07,9.41.85,16.17,4,26.2,20,22.97,36.17Z"/>
    </g>
  </g>
</svg>