<?xml version="1.0" encoding="UTF-8"?>
<svg id="Calque_2" data-name="Calque 2" xmlns="http://www.w3.org/2000/svg" viewBox="0 0 280.26 280.26">
  <defs>
    <style>
      .cls-1 {
        fill: #78869a;
      }

      .cls-1, .cls-2 {
        stroke-width: 0px;
      }

      .cls-2 {
        fill: #080b14;
      }
    </style>
  </defs>
  <g id="Calque_1-2" data-name="Calque 1">
    <rect class="cls-2" width="280.26" height="280.26" rx="39.97" ry="39.97"/>
    <g>
      <polygon class="cls-1" points="198.38 94.28 81.89 94.28 87.19 85.1 92.48 75.94 187.79 75.94 193.07 85.1 198.38 94.28"/>
      <path class="cls-1" d="M259.34,199.88l-2.73-4.74-5.3-9.16-5.3-9.17-5.02-8.7-.27-.46-5.3-9.17-5.3-9.17-5.3-9.17-2.18-3.78-3.11-5.39-5.31-9.17-5.3-9.17H71.31l-5.3,9.17-5.31,9.17-3.11,5.39-2.18,3.78,2.18,3.78,3.12,5.4-.4.23-5.82,3.36-3.36,1.94-6.32,3.65-5.3,9.17-.27.46-5.02,8.7-5.3,9.17-2.46,4.25-2.83,4.91-2.73,4.74-2.56,4.44h21.18l5.3-9.18,5.3-9.16,5.3-9.16,2.18-3.78.66-1.15,2.06-1.19,3.36-1.94,1.94-1.12h65.34v36.68h46.23l-5.3-9.16h0s-4.25-7.38-4.25-7.38l-1.04-1.8h-17.29v-55.01h6.71l5.28,9.16,5.3,9.17,1.04,1.8,4.25,7.37,5.3,9.17,5.3,9.17,3.5,6.05,1.79,3.11,5.3,9.17,5.3,9.17h21.18l-5.3-9.17-5.3-9.17-4.64-8.03-.66-1.13-5.3-9.17-5.3-9.17-5.3-9.17-1.79-3.11-3.5-6.07-5.28-9.16h21.18l5.28,9.16.66,1.13,4.64,8.04,5.3,9.17,5.3,9.17,3.12,5.4,2.18,3.78,5.3,9.16,5.3,9.16,5.3,9.18h21.18l-2.56-4.44ZM130.96,149.3h-49.06l-5.3-9.17,5.28-9.16h49.07v18.33Z"/>
    </g>
  </g>
</svg>